<?xml version="1.0" encoding="UTF-8" standalone="no"?>
<svg
   xmlns:dc="http://purl.org/dc/elements/1.1/"
   xmlns:cc="http://creativecommons.org/ns#"
   xmlns:rdf="http://www.w3.org/1999/02/22-rdf-syntax-ns#"
   xmlns:svg="http://www.w3.org/2000/svg"
   xmlns="http://www.w3.org/2000/svg"
   xmlns:sodipodi="http://sodipodi.sourceforge.net/DTD/sodipodi-0.dtd"
   xmlns:inkscape="http://www.inkscape.org/namespaces/inkscape"
   version="1.1"
   id="svg10"
   width="525.1507"
   height="514.76569"
   viewBox="0 0 525.1507 514.76569"
   sodipodi:docname="Logo.svg"
   inkscape:version="1.0.2 (e86c870879, 2021-01-15, custom)">
  <metadata
     id="metadata16">
    <rdf:RDF>
      <cc:Work
         rdf:about="">
        <dc:format>image/svg+xml</dc:format>
        <dc:type
           rdf:resource="http://purl.org/dc/dcmitype/StillImage" />
        <dc:title></dc:title>
      </cc:Work>
    </rdf:RDF>
  </metadata>
  <defs
     id="defs14" />
  <sodipodi:namedview
     pagecolor="#ffffff"
     bordercolor="#666666"
     borderopacity="1"
     objecttolerance="10"
     gridtolerance="10"
     guidetolerance="10"
     inkscape:pageopacity="0"
     inkscape:pageshadow="2"
     inkscape:window-width="2060"
     inkscape:window-height="1242"
     id="namedview12"
     showgrid="false"
     inkscape:zoom="1.68"
     inkscape:cx="376.71247"
     inkscape:cy="293.99546"
     inkscape:window-x="2171"
     inkscape:window-y="514"
     inkscape:window-maximized="0"
     inkscape:current-layer="g18" />
  <g
     inkscape:groupmode="layer"
     inkscape:label="Image"
     id="g18"
     transform="translate(0,0)">
    <path
       style="fill:#000000;stroke-width:3.21721"
       d="m 221.84047,517.83099 c -25.83389,-5.13643 -51.96713,-13.92327 -72.37647,-24.33535 -24.8687,-12.68707 -48.01816,-29.53791 -50.272007,-36.5938 -1.86167,-5.82807 16.628497,-25.34948 124.563527,-131.51087 82.82404,-81.46295 128.98371,-124.64061 133.19594,-124.59113 3.89878,0.0457 28.04358,20.86489 61.09707,52.68152 53.24845,51.2559 54.56737,52.84318 51.39787,61.85554 -6.46867,18.39366 -16.04634,13.41458 -66.63963,-34.64362 L 356.59795,236.7999 245.95478,345.18759 135.3116,453.57528 l 27.17837,13.41978 c 37.04646,18.29232 64.26808,24.4581 107.60865,24.37368 41.66849,-0.0811 65.75699,-5.61535 102.9507,-23.65225 78.9232,-38.2734 127.92037,-116.40404 128.09323,-204.2568 C 501.31467,175.94741 452.12598,97.507253 373.04932,59.192248 335.83827,41.162364 311.75469,35.631814 270.09862,35.550644 227.4066,35.467682 199.84477,41.586036 163.93071,59.119186 86.111623,97.110313 36.516853,174.9754 36.056833,259.88469 c -0.0875,16.12199 1.64747,37.83713 3.85518,48.25592 l 4.01399,18.94323 47.13353,-46.77568 c 25.923397,-25.72664 50.463087,-47.76318 54.532597,-48.97015 6.25201,-1.8542 12.11263,2.42796 37.8022,27.62083 16.72171,16.39841 30.40312,32.21968 30.40312,35.15838 0,6.11888 -9.78414,15.99201 -15.84787,15.99201 -2.24455,0 -13.82844,-9.41034 -25.74193,-20.91187 -11.91351,-11.50152 -23.01029,-20.91186 -24.65949,-20.91186 -1.6492,0 -25.42107,22.48663 -52.826387,49.97031 -40.87944,40.99633 -51.27221,49.80727 -57.87083,49.06244 C 12.086243,364.52295 -3.0450671,262.49372 12.382963,202.33272 25.376953,151.66317 58.875753,98.684293 98.487493,66.157024 124.49933,44.797353 167.99768,22.254205 200.04819,13.522896 c 35.48087,-9.6658194 101.40278,-9.6658194 136.88364,0 53.13302,14.47467 110.86391,52.783891 142.03697,94.253194 82.49803,109.74664 65.77922,263.0256 -38.29142,351.05781 -26.03186,22.02004 -76.59333,48.06846 -107.84318,55.55893 -30.04816,7.20246 -83.70198,8.86444 -110.99373,3.43816 z"
       id="path22" />
  </g>
</svg>
